# xmcd
#
# Track frame offsets: 
#        150
#        35395
#        52461
#        71421
#        95521
#        118051
#        176219
#
# Disc length: 2717 seconds
#
# Revision: 0
# Processed by: cddbd v1.5.2PL0 Copyright (c) Steve Scherf et al.
# Submitted via: ExactAudioCopy v0.95b3
#
DISCID=660a9b07
DTITLE=Acdc  - Theatre De Verdure, Nice, FR 12-15-79 - Disc 1
DYEAR=1900
DGENRE=
TTITLE0=Live Wire
TTITLE1=Shot Down In Flames
TTITLE2=Hell Ain´t A Bad Place To Be
TTITLE3=Sin City
TTITLE4=Walk All Over You
TTITLE5=Bad Boy Boogie
TTITLE6=She´s Got The Jack
EXTD=
EXTT0=
EXTT1=
EXTT2=
EXTT3=
EXTT4=
EXTT5=
EXTT6=
PLAYORDER=
